HIERARCHY
ROOT Hips
{
    OFFSET   0.000000   0.000000   0.000000
    CHANNELS 6 Xposition Yposition Zposition Zrotation Xrotation Yrotation
    JOINT Chest
    {
        OFFSET   0.000000   8.007230   0.000000
        CHANNELS 3 Zrotation Xrotation Yrotation
        JOINT Chest2
        {
            OFFSET   0.000000  22.077100   0.000000
            CHANNELS 3 Zrotation Xrotation Yrotation
            JOINT Neck
            {
                OFFSET   0.000000  23.254700   0.000000
                CHANNELS 3 Zrotation Xrotation Yrotation
                JOINT Head
                {
                    OFFSET   0.000010  14.370000   1.956610
                    CHANNELS 3 Zrotation Xrotation Yrotation
                    End Site
                    {
                        OFFSET   0.000000  19.566000   0.000000
                    }
                }
            }
            JOINT LeftCollar
            {
                OFFSET   3.911900  19.017000  -0.467063
                CHANNELS 3 Zrotation Xrotation Yrotation
                JOINT LeftShoulder
                {
                    OFFSET  10.383700   0.000000   0.000000
                    CHANNELS 3 Zrotation Xrotation Yrotation
                    JOINT LeftElbow
                    {
                        OFFSET  26.662100   0.001671   0.000522
                        CHANNELS 3 Zrotation Xrotation Yrotation
                        JOINT LeftWrist
                        {
                            OFFSET  28.869000   0.000037  -0.000114
                            CHANNELS 3 Zrotation Xrotation Yrotation
                            JOINT LeftFinger0
                            {
                                OFFSET   2.044650  -2.323450   3.252850
                                CHANNELS 3 Zrotation Xrotation Yrotation
                                JOINT LeftFinger01
                                {
                                    OFFSET   3.088140   0.000000   0.000000
                                    CHANNELS 3 Zrotation Xrotation Yrotation
                                    JOINT LeftFinger02
                                    {
                                        OFFSET   2.639460   0.000000   0.000000
                                        CHANNELS 3 Zrotation Xrotation Yrotation
                                        End Site
                                        {
                                            OFFSET   2.582190   0.000000   0.000000
                                        }
                                    }
                                }
                            }
                            JOINT LeftFinger1
                            {
                                OFFSET   8.364480   0.000000   3.252850
                                CHANNELS 3 Zrotation Xrotation Yrotation
                                JOINT LeftFinger11
                                {
                                    OFFSET   4.646930   0.000000   0.000000
                                    CHANNELS 3 Zrotation Xrotation Yrotation
                                    JOINT LeftFinger12
                                    {
                                        OFFSET   2.323470   0.000000   0.000000
                                        CHANNELS 3 Zrotation Xrotation Yrotation
                                        End Site
                                        {
                                            OFFSET   2.273050   0.000000   0.000000
                                        }
                                    }
                                }
                            }
                            JOINT LeftFinger2
                            {
                                OFFSET   8.364490   0.000016   1.078090
                                CHANNELS 3 Zrotation Xrotation Yrotation
                                JOINT LeftFinger21
                                {
                                    OFFSET   5.111620   0.000000   0.000000
                                    CHANNELS 3 Zrotation Xrotation Yrotation
                                    JOINT LeftFinger22
                                    {
                                        OFFSET   2.788150   0.000013   0.000000
                                        CHANNELS 3 Zrotation Xrotation Yrotation
                                        End Site
                                        {
                                            OFFSET   2.727660   0.000000   0.000000
                                        }
                                    }
                                }
                            }
                            JOINT LeftFinger3
                            {
                                OFFSET   7.899780   0.000016  -1.078090
                                CHANNELS 3 Zrotation Xrotation Yrotation
                                JOINT LeftFinger31
                                {
                                    OFFSET   4.646930   0.000000   0.000000
                                    CHANNELS 3 Zrotation Xrotation Yrotation
                                    JOINT LeftFinger32
                                    {
                                        OFFSET   2.323470   0.000000   0.000000
                                        CHANNELS 3 Zrotation Xrotation Yrotation
                                        End Site
                                        {
                                            OFFSET   2.273050   0.000000   0.000000
                                        }
                                    }
                                }
                            }
                            JOINT LeftFinger4
                            {
                                OFFSET   7.435080   0.000000  -3.252850
                                CHANNELS 3 Zrotation Xrotation Yrotation
                                JOINT LeftFinger41
                                {
                                    OFFSET   3.717550   0.000000   0.000000
                                    CHANNELS 3 Zrotation Xrotation Yrotation
                                    JOINT LeftFinger42
                                    {
                                        OFFSET   1.858760   0.000000   0.000000
                                        CHANNELS 3 Zrotation Xrotation Yrotation
                                        End Site
                                        {
                                            OFFSET   1.818440   0.000000   0.000000
                                        }
                                    }
                                }
                            }
                        }
                    }
                }
            }
            JOINT RightCollar
            {
                OFFSET  -3.911900  19.017000  -0.467064
                CHANNELS 3 Zrotation Xrotation Yrotation
                JOINT RightShoulder
                {
                    OFFSET -10.383700   0.000000   0.000000
                    CHANNELS 3 Zrotation Xrotation Yrotation
                    JOINT RightElbow
                    {
                        OFFSET -26.662100   0.001633   0.000260
                        CHANNELS 3 Zrotation Xrotation Yrotation
                        JOINT RightWrist
                        {
                            OFFSET -28.869000  -0.000045  -0.000080
                            CHANNELS 3 Zrotation Xrotation Yrotation
                            JOINT RightFinger0
                            {
                                OFFSET  -2.044660  -2.323490   3.252850
                                CHANNELS 3 Zrotation Xrotation Yrotation
                                JOINT RightFinger01
                                {
                                    OFFSET  -3.088140   0.000000   0.000000
                                    CHANNELS 3 Zrotation Xrotation Yrotation
                                    JOINT RightFinger02
                                    {
                                        OFFSET  -2.639450   0.000000   0.000000
                                        CHANNELS 3 Zrotation Xrotation Yrotation
                                        End Site
                                        {
                                            OFFSET  -2.582190   0.000000   0.000000
                                        }
                                    }
                                }
                            }
                            JOINT RightFinger1
                            {
                                OFFSET  -8.364480   0.000000   3.252850
                                CHANNELS 3 Zrotation Xrotation Yrotation
                                JOINT RightFinger11
                                {
                                    OFFSET  -4.646920   0.000000   0.000000
                                    CHANNELS 3 Zrotation Xrotation Yrotation
                                    JOINT RightFinger12
                                    {
                                        OFFSET  -2.323470   0.000000   0.000000
                                        CHANNELS 3 Zrotation Xrotation Yrotation
                                        End Site
                                        {
                                            OFFSET  -2.273050   0.000000   0.000000
                                        }
                                    }
                                }
                            }
                            JOINT RightFinger2
                            {
                                OFFSET  -8.364480   0.000000   1.078090
                                CHANNELS 3 Zrotation Xrotation Yrotation
                                JOINT RightFinger21
                                {
                                    OFFSET  -5.111610   0.000000   0.000000
                                    CHANNELS 3 Zrotation Xrotation Yrotation
                                    JOINT RightFinger22
                                    {
                                        OFFSET  -2.788160   0.000000   0.000000
                                        CHANNELS 3 Zrotation Xrotation Yrotation
                                        End Site
                                        {
                                            OFFSET  -2.727660   0.000000   0.000000
                                        }
                                    }
                                }
                            }
                            JOINT RightFinger3
                            {
                                OFFSET  -7.899780   0.000000  -1.078090
                                CHANNELS 3 Zrotation Xrotation Yrotation
                                JOINT RightFinger31
                                {
                                    OFFSET  -4.646930   0.000000   0.000000
                                    CHANNELS 3 Zrotation Xrotation Yrotation
                                    JOINT RightFinger32
                                    {
                                        OFFSET  -2.323470   0.000000   0.000000
                                        CHANNELS 3 Zrotation Xrotation Yrotation
                                        End Site
                                        {
                                            OFFSET  -2.273050   0.000000   0.000000
                                        }
                                    }
                                }
                            }
                            JOINT RightFinger4
                            {
                                OFFSET  -7.435090   0.000000  -3.252850
                                CHANNELS 3 Zrotation Xrotation Yrotation
                                JOINT RightFinger41
                                {
                                    OFFSET  -3.717550   0.000000   0.000000
                                    CHANNELS 3 Zrotation Xrotation Yrotation
                                    JOINT RightFinger42
                                    {
                                        OFFSET  -1.858760   0.000000   0.000000
                                        CHANNELS 3 Zrotation Xrotation Yrotation
                                        End Site
                                        {
                                            OFFSET  -1.818440   0.000000   0.000000
                                        }
                                    }
                                }
                            }
                        }
                    }
                }
            }
        }
    }
    JOINT LeftHip
    {
        OFFSET   9.782990   0.000000   0.000000
        CHANNELS 3 Zrotation Xrotation Yrotation
        JOINT LeftKnee
        {
            OFFSET  -0.000063 -41.789100   0.001657
            CHANNELS 3 Zrotation Xrotation Yrotation
            JOINT LeftAnkle
            {
                OFFSET   0.000078 -41.133200  -0.000113
                CHANNELS 3 Zrotation Xrotation Yrotation
                JOINT LeftToe
                {
                    OFFSET   0.000000  -6.358970  14.674500
                    CHANNELS 3 Zrotation Xrotation Yrotation
                    End Site
                    {
                        OFFSET   0.000000   0.000000   3.913200
                    }
                }
            }
        }
    }
    JOINT RightHip
    {
        OFFSET  -9.782990   0.000000   0.000000
        CHANNELS 3 Zrotation Xrotation Yrotation
        JOINT RightKnee
        {
            OFFSET   0.000053 -41.789200   0.000277
            CHANNELS 3 Zrotation Xrotation Yrotation
            JOINT RightAnkle
            {
                OFFSET   0.000030 -41.133200  -0.000150
                CHANNELS 3 Zrotation Xrotation Yrotation
                JOINT RightToe
                {
                    OFFSET   0.000000  -6.358960  14.674500
                    CHANNELS 3 Zrotation Xrotation Yrotation
                    End Site
                    {
                        OFFSET   0.000000   0.000000   3.913200
                    }
                }
            }
        }
    }
}
MOTION
Frames: 4
Frame Time:   0.016667
 -4.080240  89.155700   1.734560  -5.131880 -15.330800  -5.589460  -1.538260   8.008990   1.643400  -3.360240  15.966700   3.558490   6.280200  -1.000780   0.110159  10.326000  -1.956720   0.956341  -1.076060   0.233174   0.971743 -70.043400  19.031000  -3.997330  -0.112190  -1.684380 -21.396300  10.933300  -5.365330   3.744280  42.448800  39.043500 -71.435500 -31.777900   0.000000   0.000063 -10.888900   0.003181   0.000000 -30.854700   5.341010  -8.856170 -25.583300   0.000369   0.005299 -17.908300  -0.002278   0.001106 -28.320900  -1.513080   2.805090 -34.720700   0.002724   0.000966 -23.123900  -0.003878   0.001027 -27.881100  -1.491510   2.816620 -31.480000   0.001012   0.000315 -20.965700   0.001242   0.003785 -29.047200  -1.548680   2.785650 -43.627100  -0.002366   0.000784 -29.055700  -0.005994   0.000826   1.517150  -9.542130   3.429230  -7.858090 -21.420600  33.907400 -16.053500   7.983810  -0.001224  -7.323220  13.773400  -9.515190 -16.553500  41.637000  57.051900  82.019500  -0.010373   0.006606  47.965000  -0.004162   0.008538   3.774210   1.820460  25.949700   3.426630  -0.007463  -0.001250   2.398640  -0.005177  -0.000650  89.000000  -0.000344   0.000494  98.462800  -0.005187  -0.007143  73.847000  -0.006241   0.002973  88.996000  -4.999520  -0.089399  97.780900  -0.005796  -0.008556  73.335600  -0.007416   0.008318  88.984100 -10.004300  -0.179622 110.003000   0.006084   0.001146  80.000000   0.001571  -0.001245   6.555710  19.432200   6.102050   2.196590   0.775955   4.463920  -5.479600  -4.015020  -1.735250  -0.000000   0.000000   0.000000   7.423350  15.639000  -1.580790  -0.966502   6.788790  -7.613510  -0.951302  -7.245990   2.739710   0.000000   0.000000   0.000000
 -4.123290  89.143800   1.830810  -5.090920 -15.367500  -5.494490  -1.536480   7.934960   1.591690  -3.346000  15.820400   3.450160   6.263710  -0.895431   0.098277  10.297200  -1.751190   1.050760  -1.104920   0.410758   1.066170 -70.101800  19.120000  -4.053820   0.006221  -1.689110 -21.500000  10.952900  -5.455330   3.797050  42.438300  39.082700 -71.406300 -31.863700   0.000000   0.000026 -10.931800   0.003151   0.000000 -30.885100   5.274310  -8.734170 -25.599600   0.000589   0.005392 -17.919800  -0.002340   0.001405 -28.318600  -1.581560   2.931640 -34.729700   0.002646   0.000929 -23.129900  -0.003839   0.000972 -27.880400  -1.559190   2.943590 -31.495200   0.000985   0.000249 -20.975800   0.001230   0.003739 -29.066800  -1.621590   2.909780 -43.661500   0.003651   0.000782 -29.078600  -0.005995   0.000776   1.396670  -9.236050   3.284890  -7.225180 -21.118900  33.649900 -16.737600   7.767330  -0.001207  -7.937340  13.394400  -9.298760 -17.820500  40.978100  57.781000  78.920200  -0.008402   0.002890  45.900800  -0.004159   0.005406   4.532110   2.269550  26.444800   4.135230  -0.013504  -0.008671   2.894680  -0.009233  -0.005479  89.000000  -0.000280   0.000407  97.466800  -0.008920  -0.010983  73.100100  -0.010138   0.003903  88.996000  -4.999470  -0.089513  96.745200  -0.009656  -0.012007  72.558900  -0.011565   0.008546  88.984100 -10.004300  -0.179639 110.003000   0.006129   0.001154  80.000000   0.001596  -0.001253   6.555120  19.431900   6.103670   2.231670   0.895878   4.435330  -5.508870  -4.057270  -1.795540  -0.000000   0.000000  -0.000000   7.384450  15.763900  -1.613400  -0.894909   6.723730  -7.753030  -0.955273  -7.253220   2.846710   0.000000   0.000000  -0.000000
 -4.153130  89.131700   1.921190  -5.051250 -15.399200  -5.395710  -1.535510   7.856300   1.544160  -3.333990  15.664600   3.350310   6.236330  -0.785413   0.085856  10.250600  -1.536580   1.118220  -1.139620   0.577646   1.142050 -70.169300  19.168200  -4.076180   0.113953  -1.688740 -21.604600  10.969400  -5.535700   3.835960  42.421900  39.122600 -71.378600 -31.949500   0.000000   0.000000 -10.974800   0.003120  -0.000000 -30.920700   5.207480  -8.616990 -25.619800   0.000806   0.005486 -17.933900  -0.002403   0.001700 -28.316900  -1.645050   3.049620 -34.744800   0.002569   0.000895 -23.140000  -0.003802   0.000918 -27.880400  -1.621760   3.062050 -31.516100   0.000960   0.000185 -20.989700   0.001218   0.003696 -29.092100  -1.686500   3.027010 -43.704800   0.009669   0.000780 -29.107400  -0.005997   0.000727   1.302100  -8.911790   3.122940  -6.425510 -20.785400  33.310000 -17.578500   7.450900  -0.001149  -8.732050  12.928900  -8.973400 -19.207500  40.086200  58.687700  75.468300  -0.003732  -0.005607  43.601900  -0.004156  -0.001061   5.902060   3.013510  26.801100   5.414690  -0.021341  -0.020547   3.790290  -0.016434  -0.012881  89.000000  -0.000213   0.000313  96.348200  -0.014870  -0.017239  72.261200  -0.015834   0.004836  88.996000  -4.999410  -0.089621  95.572600  -0.014278  -0.016485  71.679500  -0.016139   0.008769  88.984100 -10.004300  -0.179653 110.003000   0.006172   0.001162  80.000000   0.001619  -0.001261   6.553770  19.430600   6.106590   2.267670   1.019180   4.402740  -5.530210  -4.099050  -1.853490  -0.000000   0.000000   0.000000   7.349570  15.886800  -1.636570  -0.832075   6.653010  -7.885940  -0.962689  -7.253890   2.927250  -0.000000   0.000000   0.000000
 -4.172060  89.119800   2.003770  -5.014200 -15.420800  -5.303730  -1.537170   7.778540   1.504800  -3.330330  15.510400   3.267460   6.188800  -0.675694   0.073343  10.171000  -1.322860   1.166160  -1.174260   0.717700   1.188880 -70.245600  19.136900  -4.072620   0.213037  -1.634300 -21.716900  10.989900  -5.610340   3.810350  42.412900  39.098700 -71.407000 -31.912400   0.000000   0.000000 -10.956200   0.003077  -0.000000 -30.957000   5.246240  -8.667080 -25.654900   0.001024   0.005589 -17.958400  -0.002463   0.001986 -28.325500  -1.618710   2.999880 -34.807700   0.002496   0.000869 -23.181900  -0.003768   0.000863 -27.891700  -1.595930   3.012040 -31.576100   0.000936   0.000118 -21.029700   0.001203   0.003657 -29.158300  -1.662350   2.976020 -43.801600   0.006131   0.000779 -29.171800  -0.005995   0.000682   1.291920  -8.568580   2.966190  -5.552010 -20.429800  32.834700 -18.668200   6.905390   1.103570  -9.705930  12.267400  -8.545270 -20.003600  39.306100  59.384700  73.198800   0.003590  -0.019263  42.094100  -0.004158  -0.011269   8.024480   4.052120  26.614600   7.359150  -0.031735  -0.030945   5.151400  -0.025150  -0.018341  88.977800  -0.000179   0.000262  95.253200  -0.020036  -0.023076  71.439900  -0.020959   0.005754  88.978000  -4.999380  -0.089747  94.488600  -0.017068  -0.019998  70.866500  -0.018839   0.008988  88.984100 -10.004300  -0.179669 110.003000   0.006214   0.001169  80.000000   0.001641  -0.001269   6.547130  19.416600   6.107670   2.298640   1.138190   4.372410  -5.546270  -4.141860  -1.903390  -0.000000   0.000000   0.000000   7.318100  16.001200  -1.607050  -0.780840   6.581300  -8.033880  -0.966187  -7.247970   2.976640  -0.000000   0.000000   0.000000
